<?xml version="1.0" standalone="no"?>
<!DOCTYPE svg PUBLIC "-//W3C//DTD SVG 20010904//EN"
 "http://www.w3.org/TR/2001/REC-SVG-20010904/DTD/svg10.dtd">
<svg version="1.0" xmlns="http://www.w3.org/2000/svg"
 width="612.000000pt" height="612.000000pt" viewBox="0 0 612.000000 612.000000"
 preserveAspectRatio="xMidYMid meet">
<metadata>
Created by potrace 1.14, written by Peter Selinger 2001-2017
</metadata>
<g transform="translate(0.000000,612.000000) scale(0.100000,-0.100000)"
fill="#000000" stroke="none">
<path d="M5835 5882 c-6 -5 -29 -14 -52 -21 -24 -6 -43 -16 -43 -21 0 -6 2
-10 4 -10 9 0 116 50 116 55 0 8 -15 6 -25 -3z"/>
<path d="M5698 5833 c-10 -2 -18 -8 -18 -12 0 -4 -8 -7 -17 -8 -10 -1 -79 -29
-153 -62 -357 -159 -587 -306 -816 -521 -61 -58 -144 -126 -185 -152 -122 -78
-225 -186 -302 -313 -37 -63 -80 -155 -71 -155 2 0 -2 -10 -10 -22 -14 -22
-52 -147 -62 -205 -24 -139 -47 -313 -64 -502 -33 -361 -58 -497 -120 -658
-16 -42 -27 -79 -25 -82 3 -2 5 1 5 7 0 7 7 12 15 12 9 0 27 11 40 25 14 13
25 22 25 19 0 -17 155 120 241 214 l57 61 7 -157 c9 -187 -6 -444 -35 -584
-23 -111 -69 -248 -106 -314 -98 -176 148 140 269 346 155 261 257 556 303
875 7 55 19 206 24 335 25 567 31 680 46 760 23 131 52 226 99 327 24 50 41
94 37 97 -3 3 -1 6 5 6 6 0 26 24 45 53 138 207 369 390 701 553 102 51 128
74 65 57z"/>
<path d="M4325 5488 c-150 -13 -267 -69 -365 -175 -125 -137 -195 -351 -199
-610 -4 -256 -61 -468 -159 -593 -20 -25 -40 -51 -46 -58 -8 -11 -2 -10 27 1
72 30 133 88 190 180 77 121 116 265 141 507 18 173 102 362 217 485 122 130
273 198 474 212 44 3 81 7 83 8 7 6 -146 37 -213 43 -38 4 -106 4 -150 0z"/>
<path d="M4708 5433 c7 -3 16 -2 19 1 4 3 -2 6 -13 5 -11 0 -14 -3 -6 -6z"/>
<path d="M92 5303 c107 -160 286 -394 384 -503 17 -19 55 -62 84 -95 162 -184
595 -575 638 -575 6 0 12 -4 12 -9 0 -13 208 -153 218 -147 5 3 9 -1 9 -9 0
-19 -10 -19 -142 4 -218 38 -421 88 -618 151 -71 23 -131 40 -133 37 -9 -9
243 -197 435 -326 187 -125 337 -212 536 -310 314 -155 493 -217 820 -284 l59
-12 -74 -29 c-139 -54 -370 -161 -370 -172 0 -4 7 -4 15 0 8 3 15 2 15 -3 0
-8 20 -13 95 -27 11 -2 64 -13 118 -24 54 -11 103 -17 108 -14 6 3 15 1 22 -4
7 -6 82 -16 168 -22 281 -21 539 18 718 109 63 33 162 111 155 123 -4 6 -3 8
3 5 6 -4 27 12 47 36 20 23 43 49 50 57 16 18 39 61 34 64 -12 10 -134 36
-188 41 -35 3 -66 7 -67 9 -2 2 25 22 59 44 35 23 79 56 98 73 33 30 63 41
150 54 37 6 198 47 268 68 24 7 44 17 45 23 3 19 -283 213 -305 207 -4 -2 -8
2 -8 7 0 6 -7 10 -15 10 -8 0 -15 4 -15 8 0 8 -243 129 -270 134 -8 2 -17 6
-20 9 -10 13 -261 99 -417 144 -87 25 -246 66 -353 91 -107 24 -250 58 -318
74 -68 17 -127 28 -132 25 -4 -3 -10 -1 -12 3 -3 8 -214 65 -235 64 -5 0 -13
4 -19 9 -6 5 -23 10 -38 11 -14 1 -26 6 -26 10 0 4 -9 8 -20 8 -20 0 -156 47
-345 120 -112 43 -128 48 -136 46 -3 0 -13 7 -23 17 -10 9 -21 15 -26 12 -5
-3 -10 -1 -12 4 -5 13 -145 81 -152 74 -3 -4 -6 -2 -6 4 0 5 -19 18 -42 29
-24 10 -47 22 -53 27 -5 4 -66 43 -135 85 -69 43 -167 108 -218 145 -51 37
-97 67 -102 67 -6 0 -10 4 -10 8 0 5 -23 26 -50 48 -75 58 -125 100 -226 192
-51 45 -95 82 -99 82 -3 0 27 -48 67 -107z"/>
<path d="M3620 3169 c-263 -163 -436 -358 -584 -656 -55 -110 -125 -294 -140
-366 -2 -7 -6 -19 -9 -27 -15 -36 -58 -246 -76 -375 -17 -114 -28 -157 -62
-235 -40 -91 -64 -154 -116 -305 -37 -108 -111 -367 -115 -400 -2 -16 -6 -32
-10 -35 -4 -3 -9 -21 -11 -40 -2 -19 -7 -42 -10 -50 -18 -47 -89 -441 -81
-449 6 -6 5 -8 59 129 131 330 328 677 524 925 57 72 224 269 251 295 8 8 58
62 110 120 52 58 102 112 110 120 79 77 300 362 300 386 0 7 4 14 9 16 14 5
99 153 145 253 71 151 162 417 150 437 -4 6 -2 13 4 17 6 4 14 27 17 51 3 25
2 39 -1 32 -3 -6 -10 -10 -15 -7 -17 11 -262 -124 -378 -209 l-54 -39 7 44
c34 208 56 410 45 408 -2 0 -33 -18 -69 -40z"/>
</g>
</svg>
